<?xml version="1.0" encoding="UTF-8"?>
<!DOCTYPE svg PUBLIC "-//W3C//DTD SVG 1.1//EN" "http://www.w3.org/Graphics/SVG/1.1/DTD/svg11.dtd">
<!-- Creator: CorelDRAW X6 -->
<svg xmlns="http://www.w3.org/2000/svg" xml:space="preserve" width="2.85663in" height="0.716764in" version="1.1" style="shape-rendering:geometricPrecision; text-rendering:geometricPrecision; image-rendering:optimizeQuality; fill-rule:evenodd; clip-rule:evenodd"
viewBox="0 0 139202 34928"
 xmlns:xlink="http://www.w3.org/1999/xlink">
 <defs>
  <style type="text/css">
   <![CDATA[
    .fil6 {fill:#C5C6C6}
    .fil0 {fill:#EBECEC}
    .fil5 {fill:#FEFEFE}
    .fil4 {fill:#009D43}
    .fil1 {fill:#FECC00}
    .fil2 {fill:#727271;fill-rule:nonzero}
    .fil3 {fill:#009D43;fill-rule:nonzero}
   ]]>
  </style>
 </defs>
 <g id="Layer_x0020_1">
  <metadata id="CorelCorpID_0Corel-Layer"/>
  <g id="_771990176">
   <path class="fil0" d="M13923 34928c-5079,-4236 -13056,-7763 -13056,-16296l0 -12348c5519,513 9802,-1263 13056,-4955 3254,3692 7536,5468 13056,4955l0 12348c0,8533 -7977,12061 -13056,16296z"/>
   <path class="fil1" d="M13056 33599c-5079,-4236 -13056,-7763 -13056,-16296l0 -12348c5519,513 9802,-1263 13056,-4955 3254,3692 7536,5468 13056,4955l0 12348c0,8533 -7977,12061 -13056,16296z"/>
   <path class="fil2" d="M37060 15700l-1404 0 0 -5422 -1676 517 0 -1134 2930 -1045 151 0 0 7083zm7058 -2925c0,980 -202,1728 -607,2247 -404,519 -998,778 -1777,778 -771,0 -1361,-254 -1769,-763 -408,-509 -617,-1239 -627,-2189l0 -1302c0,-990 206,-1739 615,-2252 409,-512 1000,-768 1771,-768 769,0 1360,254 1768,761 408,507 617,1235 627,2185l0 1302zm-1405 -1431c0,-587 -79,-1015 -240,-1282 -159,-267 -409,-401 -749,-401 -332,0 -575,128 -731,381 -158,255 -240,653 -250,1194l0 1723c0,577 78,1005 236,1285 158,280 409,421 756,421 343,0 590,-134 743,-403 153,-270 230,-681 237,-1235l0 -1683zm7111 1431c0,980 -202,1728 -607,2247 -404,519 -998,778 -1777,778 -771,0 -1361,-254 -1769,-763 -408,-509 -617,-1239 -627,-2189l0 -1302c0,-990 206,-1739 615,-2252 409,-512 1000,-768 1771,-768 769,0 1360,254 1768,761 408,507 617,1235 627,2185l0 1302zm-1405 -1431c0,-587 -79,-1015 -240,-1282 -159,-267 -409,-401 -749,-401 -332,0 -575,128 -731,381 -158,255 -240,653 -250,1194l0 1723c0,577 78,1005 236,1285 158,280 409,421 756,421 343,0 590,-134 743,-403 153,-270 230,-681 237,-1235l0 -1683zm2328 -1353c0,-434 141,-788 423,-1058 282,-270 652,-406 1108,-406 463,0 836,134 1118,401 282,267 423,630 423,1088l0 350c0,438 -141,789 -423,1055 -282,267 -652,400 -1108,400 -459,0 -832,-134 -1116,-401 -282,-267 -424,-628 -424,-1083l0 -345zm934 375c0,199 55,358 167,478 111,121 257,181 439,181 181,0 325,-61 433,-182 106,-123 159,-285 159,-491l0 -365c0,-199 -53,-358 -159,-481 -108,-121 -255,-182 -443,-182 -177,0 -322,60 -433,181 -109,119 -164,287 -164,502l0 360zm2447 3600c0,-438 143,-791 428,-1058 285,-267 655,-401 1108,-401 459,0 831,133 1114,396 284,264 426,628 426,1093l0 350c0,434 -139,786 -418,1053 -279,267 -650,401 -1113,401 -466,0 -841,-134 -1123,-403 -282,-270 -423,-627 -423,-1071l0 -360zm934 380c0,182 58,337 174,466 116,128 262,192 438,192 395,0 592,-222 592,-668l0 -375c0,-199 -55,-358 -164,-478 -111,-121 -257,-181 -438,-181 -181,0 -327,60 -438,181 -109,119 -164,284 -164,492l0 370zm-2497 827l-685 -370 3454 -5529 685 370 -3454 5530zm11847 -1316c0,-277 -98,-491 -292,-640 -194,-148 -544,-305 -1050,-469 -506,-166 -905,-328 -1200,-486 -803,-434 -1204,-1020 -1204,-1756 0,-381 108,-723 323,-1023 214,-300 524,-534 927,-703 403,-167 855,-252 1358,-252 506,0 955,91 1350,275 396,182 703,441 922,774 217,335 327,713 327,1137l-1456 0c0,-323 -103,-574 -307,-754 -204,-179 -491,-269 -861,-269 -355,0 -632,74 -831,225 -197,151 -295,350 -295,597 0,229 116,423 346,579 232,154 572,300 1023,436 829,250 1433,559 1812,929 378,370 567,829 567,1380 0,612 -231,1093 -695,1441 -463,348 -1086,522 -1869,522 -545,0 -1039,-100 -1487,-299 -446,-199 -788,-473 -1023,-819 -234,-347 -352,-750 -352,-1206l1462 0c0,793 466,1189 1399,1189 345,0 617,-71 811,-214 194,-141 292,-340 292,-595zm3671 -3409l43 585c373,-456 877,-685 1512,-685 676,0 1141,267 1393,801 370,-534 895,-801 1580,-801 569,0 993,166 1272,497 279,332 418,832 418,1499l0 3356 -1409 0 0 -3358c0,-299 -58,-516 -174,-653 -116,-138 -322,-207 -617,-207 -421,0 -713,201 -875,604l5 3615 -1403 0 0 -3353c0,-305 -60,-526 -181,-661 -119,-136 -323,-204 -612,-204 -398,0 -686,166 -864,496l0 3722 -1405 0 0 -5253 1317 0zm8774 5253l-1408 0 0 -5253 1408 0 0 5253zm-1491 -6609c0,-209 70,-383 211,-519 141,-136 333,-204 577,-204 239,0 430,68 572,204 143,136 214,310 214,519 0,214 -71,390 -216,526 -144,136 -335,204 -570,204 -237,0 -428,-68 -572,-204 -144,-136 -215,-312 -215,-526zm4130 6609l-1409 0 0 -7461 1409 0 0 7461zm3578 100c-771,0 -1400,-237 -1884,-710 -484,-473 -726,-1103 -726,-1890l0 -136c0,-527 103,-1000 307,-1416 204,-416 492,-738 867,-962 375,-225 801,-338 1280,-338 720,0 1285,227 1698,680 413,454 619,1098 619,1930l0 574 -3346 0c45,343 182,617 410,824 229,207 517,310 867,310 542,0 963,-196 1268,-585l690 773c-211,297 -496,530 -856,696 -358,167 -758,250 -1194,250zm-161 -4318c-279,0 -504,95 -678,284 -172,189 -283,459 -332,811l1951 0 0 -113c-7,-312 -90,-554 -252,-725 -162,-171 -391,-257 -690,-257zm11280 3325c-262,315 -632,559 -1113,733 -479,174 -1010,260 -1592,260 -614,0 -1149,-134 -1612,-401 -461,-267 -817,-655 -1068,-1164 -252,-509 -380,-1108 -386,-1794l0 -481c0,-706 119,-1318 356,-1836 239,-517 582,-912 1030,-1185 449,-274 975,-411 1577,-411 839,0 1494,200 1968,600 473,401 753,983 839,1748l-1418 0c-65,-406 -209,-703 -429,-892 -222,-187 -527,-282 -917,-282 -494,0 -872,186 -1131,559 -259,373 -391,927 -393,1663l0 451c0,743 139,1303 421,1683 282,380 695,569 1239,569 549,0 939,-116 1172,-350l0 -1222 -1326 0 0 -1075 2782 0 0 2827zm4240 361c-347,421 -826,632 -1438,632 -564,0 -993,-162 -1290,-486 -297,-323 -448,-798 -454,-1423l0 -3444 1404 0 0 3397c0,547 249,821 748,821 476,0 803,-166 981,-496l0 -3722 1408 0 0 5253 -1321 0 -38 -532zm5462 532c-65,-126 -111,-282 -141,-469 -340,380 -783,569 -1326,569 -514,0 -942,-149 -1280,-448 -338,-299 -507,-675 -507,-1129 0,-557 207,-985 620,-1283 413,-298 1010,-449 1789,-453l647 0 0 -299c0,-242 -63,-434 -187,-579 -124,-144 -322,-217 -590,-217 -236,0 -421,56 -556,167 -134,113 -202,265 -202,461l-1403 0c0,-303 93,-585 280,-844 189,-259 454,-461 798,-609 343,-148 728,-220 1156,-220 648,0 1162,162 1542,487 381,327 572,783 572,1373l0 2278c3,497 73,875 209,1131l0 83 -1419 0zm-1161 -975c207,0 398,-46 574,-138 174,-93 303,-217 388,-371l0 -904 -524 0c-703,0 -1078,242 -1123,728l-5 83c0,174 61,318 184,433 123,113 292,169 506,169zm6404 -2966c-191,-25 -358,-38 -504,-38 -532,0 -880,179 -1044,539l0 3440 -1405 0 0 -5253 1326 0 38 623c282,-482 673,-723 1171,-723 156,0 302,21 438,63l-20 1348zm3575 3941c-65,-126 -111,-282 -141,-469 -340,380 -783,569 -1326,569 -514,0 -942,-149 -1280,-448 -338,-299 -507,-675 -507,-1129 0,-557 207,-985 620,-1283 413,-298 1010,-449 1789,-453l647 0 0 -299c0,-242 -63,-434 -187,-579 -124,-144 -322,-217 -590,-217 -236,0 -421,56 -556,167 -134,113 -202,265 -202,461l-1403 0c0,-303 93,-585 280,-844 189,-259 454,-461 798,-609 343,-148 728,-220 1156,-220 648,0 1162,162 1542,487 381,327 572,783 572,1373l0 2278c3,497 73,875 209,1131l0 83 -1419 0zm-1161 -975c207,0 398,-46 574,-138 174,-93 303,-217 388,-371l0 -904 -524 0c-703,0 -1078,242 -1123,728l-5 83c0,174 61,318 184,433 123,113 292,169 506,169zm4740 -4278l45 607c375,-471 879,-706 1510,-706 557,0 972,164 1244,491 272,327 411,816 418,1466l0 3396 -1404 0 0 -3368c0,-297 -65,-514 -194,-648 -129,-134 -345,-202 -647,-202 -395,0 -691,169 -889,506l0 3712 -1404 0 0 -5253 1321 0zm5961 -1293l0 1293 899 0 0 1034 -899 0 0 2620c0,194 38,333 113,418 75,84 217,126 428,126 154,0 292,-12 413,-33l0 1061c-275,84 -559,126 -851,126 -985,0 -1487,-496 -1505,-1489l0 -2829 -768 0 0 -1034 768 0 0 -1293 1403 0zm4102 6646c-771,0 -1400,-237 -1884,-710 -484,-473 -726,-1103 -726,-1890l0 -136c0,-527 103,-1000 307,-1416 204,-416 492,-738 867,-962 375,-225 801,-338 1280,-338 720,0 1285,227 1698,680 413,454 619,1098 619,1930l0 574 -3346 0c45,343 182,617 410,824 229,207 517,310 867,310 542,0 963,-196 1268,-585l690 773c-211,297 -496,530 -856,696 -358,167 -758,250 -1194,250zm-161 -4318c-279,0 -504,95 -678,284 -172,189 -283,459 -332,811l1951 0 0 -113c-7,-312 -90,-554 -252,-725 -162,-171 -391,-257 -690,-257zm5538 4318c-771,0 -1400,-237 -1884,-710 -484,-473 -726,-1103 -726,-1890l0 -136c0,-527 103,-1000 307,-1416 204,-416 492,-738 867,-962 375,-225 801,-338 1280,-338 720,0 1285,227 1698,680 413,454 619,1098 619,1930l0 574 -3346 0c45,343 182,617 410,824 229,207 517,310 867,310 542,0 963,-196 1268,-585l690 773c-211,297 -496,530 -856,696 -358,167 -758,250 -1194,250zm-161 -4318c-279,0 -504,95 -678,284 -172,189 -283,459 -332,811l1951 0 0 -113c-7,-312 -90,-554 -252,-725 -162,-171 -391,-257 -690,-257zm2895 1554c0,-821 184,-1472 551,-1958 368,-486 870,-730 1509,-730 512,0 935,191 1269,574l0 -2683 1408 0 0 7461 -1267 0 -68 -559c-350,440 -801,658 -1351,658 -618,0 -1114,-244 -1489,-731 -373,-487 -561,-1165 -561,-2033zm1405 99c0,494 84,872 257,1136 171,264 421,395 748,395 434,0 739,-184 919,-550l0 -2083c-176,-366 -478,-551 -909,-551 -676,0 -1015,551 -1015,1653z"/>
   <path class="fil3" d="M38290 20732l0 3822c-5,510 -152,908 -442,1197 -291,289 -695,432 -1215,432 -532,0 -938,-141 -1218,-423 -281,-281 -423,-683 -428,-1206l0 -3822 671 0 0 3791c0,362 78,631 232,810 154,178 401,267 743,267 344,0 593,-90 747,-267 154,-179 231,-449 231,-810l0 -3791 679 0zm1564 1384l19 430c253,-336 577,-505 971,-505 706,0 1064,471 1074,1414l0 2654 -650 0 0 -2622c0,-313 -52,-534 -156,-665 -105,-132 -262,-198 -471,-198 -161,0 -307,54 -437,162 -129,108 -233,249 -311,423l0 2899 -654 0 0 -3992 616 0zm3746 3992l-653 0 0 -3992 653 0 0 3992zm52 -5054c0,111 -30,204 -92,279 -62,74 -155,111 -281,111 -122,0 -214,-36 -276,-111 -62,-74 -93,-168 -93,-279 0,-111 31,-205 93,-282 62,-77 154,-115 276,-115 124,0 217,39 280,117 62,78 93,171 93,280zm837 2877c0,-622 113,-1094 339,-1412 227,-319 564,-478 1012,-478 387,0 687,155 901,465l29 -389 598 0 0 5526 -653 0 0 -1884c-212,283 -505,425 -879,425 -431,0 -761,-158 -993,-471 -231,-314 -349,-771 -354,-1371l0 -411zm653 372c0,447 69,780 207,997 139,217 358,325 658,325 305,0 542,-146 708,-440l0 -2141c-177,-296 -412,-443 -704,-443 -300,0 -519,108 -658,325 -137,217 -208,543 -210,978l0 399zm5306 1457c-217,283 -533,425 -949,425 -362,0 -635,-125 -820,-374 -184,-251 -277,-614 -280,-1091l0 -2602 649 0 0 2551c0,623 188,934 562,934 396,0 669,-178 819,-532l0 -2953 654 0 0 3992 -620 0 -15 -349zm3045 425c-498,0 -879,-149 -1145,-445 -265,-297 -401,-732 -406,-1305l0 -484c0,-596 130,-1062 389,-1401 260,-339 623,-508 1087,-508 468,0 817,149 1048,447 232,297 349,762 354,1392l0 428 -2229 0 0 92c0,427 81,738 242,932 161,194 393,291 695,291 192,0 362,-36 508,-108 146,-73 284,-186 412,-344l339 413c-283,399 -714,599 -1295,599zm-74 -3583c-271,0 -471,93 -601,280 -131,186 -205,476 -222,869l1572 0 0 -89c-18,-380 -86,-651 -205,-815 -119,-162 -301,-244 -544,-244zm4685 1406l0 2102 -675 0 0 -5375 1714 0c499,0 892,150 1177,449 286,300 428,698 428,1196 0,517 -136,916 -408,1194 -272,280 -655,425 -1149,435l-1086 0zm0 -582l1038 0c300,0 530,-89 690,-270 159,-180 239,-437 239,-772 0,-322 -82,-581 -247,-775 -165,-195 -392,-292 -679,-292l-1042 0 0 2109zm5073 -699c-91,-18 -190,-26 -296,-26 -334,0 -568,184 -700,551l0 2859 -654 0 0 -3992 635 0 11 404c175,-320 422,-480 742,-480 103,0 189,18 258,52l4 633zm440 1202c0,-581 141,-1039 423,-1378 282,-339 654,-508 1116,-508 463,0 836,165 1116,495 282,329 427,779 435,1347l0 421c0,578 -141,1037 -421,1375 -281,337 -655,505 -1123,505 -462,0 -834,-164 -1113,-491 -280,-328 -425,-770 -435,-1329l0 -436zm654 376c0,411 81,734 242,969 161,236 378,353 652,353 576,0 872,-416 890,-1247l0 -451c0,-408 -81,-732 -243,-969 -162,-238 -380,-356 -654,-356 -268,0 -482,118 -644,356 -161,237 -242,559 -242,965l0 381zm3141 -372c0,-615 115,-1084 345,-1406 231,-323 561,-484 992,-484 381,0 679,155 893,465l0 -2068 653 0 0 5670 -597 0 -34 -427c-214,335 -520,503 -919,503 -413,0 -738,-160 -973,-481 -236,-321 -355,-775 -360,-1361l0 -411zm654 370c0,447 66,776 199,985 132,210 349,315 649,315 325,0 568,-164 728,-490l0 -2010c-168,-319 -410,-479 -725,-479 -300,0 -517,105 -649,315 -134,209 -200,532 -203,966l0 397zm5271 1458c-217,283 -533,425 -949,425 -362,0 -635,-125 -820,-374 -184,-251 -277,-614 -280,-1091l0 -2602 649 0 0 2551c0,623 188,934 562,934 396,0 669,-178 819,-532l0 -2953 654 0 0 3992 -620 0 -15 -349zm3006 -135c215,0 389,-67 520,-200 130,-135 202,-325 214,-573l616 0c-15,384 -151,702 -408,955 -257,252 -571,378 -943,378 -495,0 -872,-156 -1132,-468 -259,-311 -389,-775 -389,-1390l0 -440c0,-602 129,-1061 387,-1375 258,-314 635,-471 1130,-471 408,0 732,130 973,388 239,258 367,611 382,1060l-616 0c-15,-296 -86,-518 -213,-666 -126,-148 -302,-222 -525,-222 -291,0 -507,96 -647,286 -140,192 -213,504 -218,940l0 509c0,470 69,803 209,997 139,195 358,292 659,292zm2957 -4475l0 968 602 0 0 529 -602 0 0 2476c0,157 26,277 78,358 52,82 140,122 266,122 86,0 172,-15 262,-44l-8 553c-147,48 -299,73 -455,73 -258,0 -455,-92 -590,-277 -136,-184 -203,-445 -203,-781l0 -2480 -610 0 0 -529 610 0 0 -968 649 0zm3321 3938c0,-140 -53,-261 -159,-362 -106,-101 -310,-219 -612,-354 -353,-145 -600,-270 -745,-373 -144,-103 -251,-220 -322,-353 -72,-131 -107,-289 -107,-470 0,-325 118,-596 356,-811 237,-215 541,-322 910,-322 389,0 702,113 937,340 237,225 354,517 354,871l-649 0c0,-180 -61,-334 -181,-461 -120,-127 -275,-190 -461,-190 -191,0 -343,49 -452,149 -110,99 -164,233 -164,399 0,132 39,239 120,320 79,81 272,188 577,320 485,190 815,375 991,557 174,181 262,412 262,690 0,348 -120,626 -359,835 -238,208 -558,313 -959,313 -416,0 -754,-120 -1012,-358 -258,-239 -388,-542 -388,-908l658 0c7,220 74,394 203,519 129,125 307,188 539,188 217,0 380,-49 494,-146 113,-97 170,-228 170,-392zm10284 -1193c0,735 -156,1299 -469,1696 -313,397 -757,595 -1333,595 -554,0 -992,-193 -1313,-578 -320,-386 -488,-930 -500,-1634l0 -1012c0,-719 159,-1283 476,-1691 318,-407 761,-611 1329,-611 566,0 1007,195 1323,586 316,389 479,948 486,1671l0 979zm-677 -941c0,-568 -92,-990 -278,-1268 -185,-276 -470,-415 -854,-415 -372,0 -653,140 -843,421 -191,280 -287,693 -290,1240l0 963c0,548 95,966 286,1254 190,289 475,432 854,432 379,0 659,-132 842,-398 181,-266 277,-673 284,-1221l0 -1008zm2244 -835l19 430c253,-336 577,-505 971,-505 706,0 1064,471 1074,1414l0 2654 -650 0 0 -2622c0,-313 -52,-534 -156,-665 -105,-132 -262,-198 -471,-198 -161,0 -307,54 -437,162 -129,108 -233,249 -311,423l0 2899 -654 0 0 -3992 616 0zm7859 -801l-1414 0 0 4793 -675 0 0 -4793 -1410 0 0 -582 3499 0 0 582zm1406 4793l-653 0 0 -3992 653 0 0 3992zm52 -5054c0,111 -30,204 -92,279 -62,74 -155,111 -281,111 -122,0 -214,-36 -276,-111 -62,-74 -93,-168 -93,-279 0,-111 31,-205 93,-282 62,-77 154,-115 276,-115 124,0 217,39 280,117 62,78 93,171 93,280zm1590 1062l15 367c243,-295 564,-442 963,-442 446,0 757,193 934,580 252,-387 601,-580 1048,-580 736,0 1113,459 1130,1377l0 2690 -650 0 0 -2626c0,-290 -52,-506 -155,-648 -103,-141 -277,-212 -524,-212 -196,0 -356,76 -480,228 -122,152 -194,348 -214,583l0 2674 -657 0 0 -2655c-7,-553 -233,-830 -675,-830 -330,0 -563,165 -698,494l0 2991 -650 0 0 -3992 614 0zm6502 4067c-498,0 -879,-149 -1145,-445 -265,-297 -401,-732 -406,-1305l0 -484c0,-596 130,-1062 389,-1401 260,-339 623,-508 1087,-508 468,0 817,149 1048,447 232,297 349,762 354,1392l0 428 -2229 0 0 92c0,427 81,738 242,932 161,194 393,291 695,291 192,0 362,-36 508,-108 146,-73 284,-186 412,-344l339 413c-283,399 -714,599 -1295,599zm-74 -3583c-271,0 -471,93 -601,280 -131,186 -205,476 -222,869l1572 0 0 -89c-18,-380 -86,-651 -205,-815 -119,-162 -301,-244 -544,-244zm4011 3508l0 -5375 1281 0c628,0 1115,197 1462,588 348,393 520,945 520,1656l0 901c0,712 -175,1261 -528,1649 -352,387 -862,581 -1531,581l-1205 0zm677 -4793l0 4211 542 0c475,0 823,-136 1041,-408 219,-271 331,-674 337,-1208l0 -953c0,-566 -108,-980 -327,-1245 -218,-265 -547,-397 -988,-397l-605 0zm4974 4869c-498,0 -879,-149 -1145,-445 -265,-297 -401,-732 -406,-1305l0 -484c0,-596 130,-1062 389,-1401 260,-339 623,-508 1087,-508 468,0 817,149 1048,447 232,297 349,762 354,1392l0 428 -2229 0 0 92c0,427 81,738 242,932 161,194 393,291 695,291 192,0 362,-36 508,-108 146,-73 284,-186 412,-344l339 413c-283,399 -714,599 -1295,599zm-74 -3583c-271,0 -471,93 -601,280 -131,186 -205,476 -222,869l1572 0 0 -89c-18,-380 -86,-651 -205,-815 -119,-162 -301,-244 -544,-244zm2892 3508l-653 0 0 -5670 653 0 0 5670zm1731 0l-653 0 0 -3992 653 0 0 3992zm52 -5054c0,111 -30,204 -92,279 -62,74 -155,111 -281,111 -122,0 -214,-36 -276,-111 -62,-74 -93,-168 -93,-279 0,-111 31,-205 93,-282 62,-77 154,-115 276,-115 124,0 217,39 280,117 62,78 93,171 93,280zm2109 4061l756 -2999 665 0 -1186 3992 -486 0 -1200 -3992 664 0 786 2999zm3479 1068c-498,0 -879,-149 -1145,-445 -265,-297 -401,-732 -406,-1305l0 -484c0,-596 130,-1062 389,-1401 260,-339 623,-508 1087,-508 468,0 817,149 1048,447 232,297 349,762 354,1392l0 428 -2229 0 0 92c0,427 81,738 242,932 161,194 393,291 695,291 192,0 362,-36 508,-108 146,-73 284,-186 412,-344l339 413c-283,399 -714,599 -1295,599zm-74 -3583c-271,0 -471,93 -601,280 -131,186 -205,476 -222,869l1572 0 0 -89c-18,-380 -86,-651 -205,-815 -119,-162 -301,-244 -544,-244zm3837 125c-91,-18 -190,-26 -296,-26 -334,0 -568,184 -700,551l0 2859 -654 0 0 -3992 635 0 11 404c175,-320 422,-480 742,-480 103,0 189,18 258,52l4 633zm1810 2297l728 -2906 693 0 -1307 4555c-98,341 -237,601 -417,780 -179,178 -384,267 -612,267 -88,0 -202,-20 -340,-59l0 -553 145 15c189,0 338,-45 445,-135 107,-90 193,-244 260,-466l130 -446 -1174 -3958 712 0 738 2906z"/>
   <path class="fil4" d="M13056 32343c-5372,-3992 -13056,-8022 -13056,-15440l0 -11461c4506,817 9628,122 13056,-3111 3428,3232 8550,3928 13056,3111l0 11461c0,7418 -7684,11448 -13056,15440z"/>
   <g>
    <path class="fil5" d="M18185 9309l11 -5c659,-231 1177,-483 1555,-755 23,650 -55,1206 -232,1658 -68,168 -152,330 -257,483 -23,31 -49,64 -71,95l-25 26c-292,358 -651,652 -1066,893 -36,20 -72,41 -110,63l-1126 520 -110 -798c-43,-1036 431,-1759 1431,-2180zm-190 -567c-267,90 -516,200 -748,337 -49,31 -96,58 -148,89 -195,120 -371,262 -524,416 -468,539 -632,1311 -487,2326 287,1400 384,2662 287,3779l0 36c-5,21 -5,42 -5,63 -131,1440 -988,2957 -2583,4552l-567 572 -839 946 -549 803 -279 541c-517,1417 -605,3271 -269,5565 -85,-1243 -42,-2341 141,-3308 190,-971 511,-1801 980,-2488l7 -5c11,-26 34,-58 59,-90 261,-368 584,-747 967,-1134l500 -521c214,-230 427,-467 653,-707 96,-116 201,-232 298,-341l548 -714c7,-22 20,-37 29,-59 330,-503 587,-986 782,-1453 328,-788 524,-1628 584,-2511 57,-885 42,-1710 -42,-2477 1242,-351 2224,-908 2930,-1670 19,-16 36,-35 54,-52 896,-1171 1029,-2678 403,-4531 -177,976 -907,1654 -2187,2022l6 15z"/>
    <path class="fil5" d="M7563 10553l-262 31 -134 26c-79,22 -158,49 -233,74 -583,231 -997,652 -1241,1259l-72 238c-286,1454 292,2771 1722,3953 -401,356 -662,782 -790,1275 -153,798 -37,1602 365,2400 -49,-479 44,-939 273,-1369l74 -127c206,-405 572,-796 1088,-1187 1318,1360 2285,2546 2920,3569l18 33 7 26c139,210 266,435 370,677 486,1076 651,2411 493,4003l-7 20c-16,362 -77,819 -169,1366 255,-826 425,-1632 517,-2431 29,-304 49,-610 55,-914 13,-437 -32,-866 -117,-1302 -36,-137 -72,-273 -116,-404l-6 -16c-450,-1521 -1499,-3246 -3143,-5171 63,-38 123,-75 183,-111 74,-58 148,-111 226,-169 779,-682 882,-1612 304,-2781 -146,935 -542,1544 -1187,1821 -45,16 -79,31 -111,47 -29,10 -54,20 -78,32 -122,46 -231,99 -341,156 -523,-498 -907,-981 -1146,-1448l-12 -27c-622,-1465 -457,-2425 505,-2887 317,-132 622,-162 913,-100 343,85 580,257 708,514 78,132 128,280 140,430 -37,-876 -499,-1375 -1396,-1495 -36,-6 -73,-6 -109,-11l-213 0z"/>
    <path class="fil5" d="M13416 15252l30 12c249,131 390,361 420,698l-7 68c0,84 -10,172 -24,262 -18,63 -30,131 -54,195l-18 52c-252,651 -871,1460 -1852,2436 -1041,967 -1728,1822 -2045,2568l-93 262 -115 484 -6 25c-233,2253 841,4154 3215,5714 -1882,-1707 -2789,-3524 -2709,-5445 12,-1120 707,-2320 2070,-3608 720,-582 1376,-1142 1960,-1690l343 -337c524,-609 754,-1227 682,-1863 -98,-657 -506,-1029 -1218,-1113 -60,-6 -123,-6 -182,-6 -61,0 -123,0 -183,6 -556,74 -1036,306 -1438,703 -153,-691 -696,-1085 -1633,-1190 1024,403 1292,1323 805,2761 554,-667 1084,-1017 1578,-1060l169 0c88,11 189,32 306,67z"/>
   </g>
   <path class="fil6" d="M86197 23259c492,0 891,399 891,891 0,492 -399,891 -891,891 -492,0 -891,-399 -891,-891 0,-492 399,-891 891,-891z"/>
  </g>
 </g>
</svg>
